%TF.GenerationSoftware,KiCad,Pcbnew,8.0.0*%
%TF.CreationDate,2024-03-19T17:03:54+01:00*%
%TF.ProjectId,PCB_Drone_THT,5043425f-4472-46f6-9e65-5f5448542e6b,rev?*%
%TF.SameCoordinates,Original*%
%TF.FileFunction,Profile,NP*%
%FSLAX46Y46*%
G04 Gerber Fmt 4.6, Leading zero omitted, Abs format (unit mm)*
G04 Created by KiCad (PCBNEW 8.0.0) date 2024-03-19 17:03:54*
%MOMM*%
%LPD*%
G01*
G04 APERTURE LIST*
%TA.AperFunction,Profile*%
%ADD10C,0.050000*%
%TD*%
%ADD11C,0.150000*%
G04 APERTURE END LIST*
D10*
X110119442Y-82550000D02*
G75*
G02*
X116469442Y-76199942I6350058J0D01*
G01*
X116469442Y-124460000D02*
G75*
G02*
X110119400Y-118110000I-42J6350000D01*
G01*
X187589442Y-124460000D02*
X116469442Y-124460000D01*
X193939442Y-82550000D02*
X193939442Y-118110000D01*
X193939442Y-118110000D02*
G75*
G02*
X187589442Y-124459942I-6349942J0D01*
G01*
X172349442Y-116840000D02*
X182509442Y-116840000D01*
X182509442Y-121920000D01*
X172349442Y-121920000D01*
X172349442Y-116840000D01*
X113929442Y-95250000D02*
X119009442Y-95250000D01*
X119009442Y-105410000D01*
X113929442Y-105410000D01*
X113929442Y-95250000D01*
X116469442Y-76200000D02*
X187589442Y-76200000D01*
X187589442Y-76200000D02*
G75*
G02*
X193939400Y-82550000I-42J-6350000D01*
G01*
X110119442Y-118110000D02*
X110119442Y-82550000D01*
X172349442Y-78740000D02*
X182509442Y-78740000D01*
X182509442Y-83820000D01*
X172349442Y-83820000D01*
X172349442Y-78740000D01*
D11*
X99603152Y-104472856D02*
X100269819Y-104472856D01*
X99222200Y-104710951D02*
X99936485Y-104949046D01*
X99936485Y-104949046D02*
X99936485Y-104329999D01*
X99698390Y-103806189D02*
X99650771Y-103901427D01*
X99650771Y-103901427D02*
X99603152Y-103949046D01*
X99603152Y-103949046D02*
X99507914Y-103996665D01*
X99507914Y-103996665D02*
X99460295Y-103996665D01*
X99460295Y-103996665D02*
X99365057Y-103949046D01*
X99365057Y-103949046D02*
X99317438Y-103901427D01*
X99317438Y-103901427D02*
X99269819Y-103806189D01*
X99269819Y-103806189D02*
X99269819Y-103615713D01*
X99269819Y-103615713D02*
X99317438Y-103520475D01*
X99317438Y-103520475D02*
X99365057Y-103472856D01*
X99365057Y-103472856D02*
X99460295Y-103425237D01*
X99460295Y-103425237D02*
X99507914Y-103425237D01*
X99507914Y-103425237D02*
X99603152Y-103472856D01*
X99603152Y-103472856D02*
X99650771Y-103520475D01*
X99650771Y-103520475D02*
X99698390Y-103615713D01*
X99698390Y-103615713D02*
X99698390Y-103806189D01*
X99698390Y-103806189D02*
X99746009Y-103901427D01*
X99746009Y-103901427D02*
X99793628Y-103949046D01*
X99793628Y-103949046D02*
X99888866Y-103996665D01*
X99888866Y-103996665D02*
X100079342Y-103996665D01*
X100079342Y-103996665D02*
X100174580Y-103949046D01*
X100174580Y-103949046D02*
X100222200Y-103901427D01*
X100222200Y-103901427D02*
X100269819Y-103806189D01*
X100269819Y-103806189D02*
X100269819Y-103615713D01*
X100269819Y-103615713D02*
X100222200Y-103520475D01*
X100222200Y-103520475D02*
X100174580Y-103472856D01*
X100174580Y-103472856D02*
X100079342Y-103425237D01*
X100079342Y-103425237D02*
X99888866Y-103425237D01*
X99888866Y-103425237D02*
X99793628Y-103472856D01*
X99793628Y-103472856D02*
X99746009Y-103520475D01*
X99746009Y-103520475D02*
X99698390Y-103615713D01*
X100222200Y-102949046D02*
X100269819Y-102949046D01*
X100269819Y-102949046D02*
X100365057Y-102996665D01*
X100365057Y-102996665D02*
X100412676Y-103044284D01*
X99365057Y-102568094D02*
X99317438Y-102520475D01*
X99317438Y-102520475D02*
X99269819Y-102425237D01*
X99269819Y-102425237D02*
X99269819Y-102187142D01*
X99269819Y-102187142D02*
X99317438Y-102091904D01*
X99317438Y-102091904D02*
X99365057Y-102044285D01*
X99365057Y-102044285D02*
X99460295Y-101996666D01*
X99460295Y-101996666D02*
X99555533Y-101996666D01*
X99555533Y-101996666D02*
X99698390Y-102044285D01*
X99698390Y-102044285D02*
X100269819Y-102615713D01*
X100269819Y-102615713D02*
X100269819Y-101996666D01*
X99269819Y-101139523D02*
X99269819Y-101329999D01*
X99269819Y-101329999D02*
X99317438Y-101425237D01*
X99317438Y-101425237D02*
X99365057Y-101472856D01*
X99365057Y-101472856D02*
X99507914Y-101568094D01*
X99507914Y-101568094D02*
X99698390Y-101615713D01*
X99698390Y-101615713D02*
X100079342Y-101615713D01*
X100079342Y-101615713D02*
X100174580Y-101568094D01*
X100174580Y-101568094D02*
X100222200Y-101520475D01*
X100222200Y-101520475D02*
X100269819Y-101425237D01*
X100269819Y-101425237D02*
X100269819Y-101234761D01*
X100269819Y-101234761D02*
X100222200Y-101139523D01*
X100222200Y-101139523D02*
X100174580Y-101091904D01*
X100174580Y-101091904D02*
X100079342Y-101044285D01*
X100079342Y-101044285D02*
X99841247Y-101044285D01*
X99841247Y-101044285D02*
X99746009Y-101091904D01*
X99746009Y-101091904D02*
X99698390Y-101139523D01*
X99698390Y-101139523D02*
X99650771Y-101234761D01*
X99650771Y-101234761D02*
X99650771Y-101425237D01*
X99650771Y-101425237D02*
X99698390Y-101520475D01*
X99698390Y-101520475D02*
X99746009Y-101568094D01*
X99746009Y-101568094D02*
X99841247Y-101615713D01*
X99269819Y-100425237D02*
X99269819Y-100329999D01*
X99269819Y-100329999D02*
X99317438Y-100234761D01*
X99317438Y-100234761D02*
X99365057Y-100187142D01*
X99365057Y-100187142D02*
X99460295Y-100139523D01*
X99460295Y-100139523D02*
X99650771Y-100091904D01*
X99650771Y-100091904D02*
X99888866Y-100091904D01*
X99888866Y-100091904D02*
X100079342Y-100139523D01*
X100079342Y-100139523D02*
X100174580Y-100187142D01*
X100174580Y-100187142D02*
X100222200Y-100234761D01*
X100222200Y-100234761D02*
X100269819Y-100329999D01*
X100269819Y-100329999D02*
X100269819Y-100425237D01*
X100269819Y-100425237D02*
X100222200Y-100520475D01*
X100222200Y-100520475D02*
X100174580Y-100568094D01*
X100174580Y-100568094D02*
X100079342Y-100615713D01*
X100079342Y-100615713D02*
X99888866Y-100663332D01*
X99888866Y-100663332D02*
X99650771Y-100663332D01*
X99650771Y-100663332D02*
X99460295Y-100615713D01*
X99460295Y-100615713D02*
X99365057Y-100568094D01*
X99365057Y-100568094D02*
X99317438Y-100520475D01*
X99317438Y-100520475D02*
X99269819Y-100425237D01*
X99269819Y-99472856D02*
X99269819Y-99377618D01*
X99269819Y-99377618D02*
X99317438Y-99282380D01*
X99317438Y-99282380D02*
X99365057Y-99234761D01*
X99365057Y-99234761D02*
X99460295Y-99187142D01*
X99460295Y-99187142D02*
X99650771Y-99139523D01*
X99650771Y-99139523D02*
X99888866Y-99139523D01*
X99888866Y-99139523D02*
X100079342Y-99187142D01*
X100079342Y-99187142D02*
X100174580Y-99234761D01*
X100174580Y-99234761D02*
X100222200Y-99282380D01*
X100222200Y-99282380D02*
X100269819Y-99377618D01*
X100269819Y-99377618D02*
X100269819Y-99472856D01*
X100269819Y-99472856D02*
X100222200Y-99568094D01*
X100222200Y-99568094D02*
X100174580Y-99615713D01*
X100174580Y-99615713D02*
X100079342Y-99663332D01*
X100079342Y-99663332D02*
X99888866Y-99710951D01*
X99888866Y-99710951D02*
X99650771Y-99710951D01*
X99650771Y-99710951D02*
X99460295Y-99663332D01*
X99460295Y-99663332D02*
X99365057Y-99615713D01*
X99365057Y-99615713D02*
X99317438Y-99568094D01*
X99317438Y-99568094D02*
X99269819Y-99472856D01*
X100269819Y-97949046D02*
X99603152Y-97949046D01*
X99698390Y-97949046D02*
X99650771Y-97901427D01*
X99650771Y-97901427D02*
X99603152Y-97806189D01*
X99603152Y-97806189D02*
X99603152Y-97663332D01*
X99603152Y-97663332D02*
X99650771Y-97568094D01*
X99650771Y-97568094D02*
X99746009Y-97520475D01*
X99746009Y-97520475D02*
X100269819Y-97520475D01*
X99746009Y-97520475D02*
X99650771Y-97472856D01*
X99650771Y-97472856D02*
X99603152Y-97377618D01*
X99603152Y-97377618D02*
X99603152Y-97234761D01*
X99603152Y-97234761D02*
X99650771Y-97139522D01*
X99650771Y-97139522D02*
X99746009Y-97091903D01*
X99746009Y-97091903D02*
X100269819Y-97091903D01*
X100269819Y-96615713D02*
X99603152Y-96615713D01*
X99698390Y-96615713D02*
X99650771Y-96568094D01*
X99650771Y-96568094D02*
X99603152Y-96472856D01*
X99603152Y-96472856D02*
X99603152Y-96329999D01*
X99603152Y-96329999D02*
X99650771Y-96234761D01*
X99650771Y-96234761D02*
X99746009Y-96187142D01*
X99746009Y-96187142D02*
X100269819Y-96187142D01*
X99746009Y-96187142D02*
X99650771Y-96139523D01*
X99650771Y-96139523D02*
X99603152Y-96044285D01*
X99603152Y-96044285D02*
X99603152Y-95901428D01*
X99603152Y-95901428D02*
X99650771Y-95806189D01*
X99650771Y-95806189D02*
X99746009Y-95758570D01*
X99746009Y-95758570D02*
X100269819Y-95758570D01*
D10*
X115969442Y-124460000D02*
X100378580Y-124460000D01*
X115969442Y-76200000D02*
X100378580Y-76200000D01*
X100965000Y-124460000D02*
X100965000Y-76200000D01*
X100965000Y-124460000D02*
X100965000Y-76200000D01*
X100965000Y-124460000D02*
X100378579Y-123333496D01*
X100965000Y-124460000D02*
X101551421Y-123333496D01*
X100965000Y-76200000D02*
X101551421Y-77326504D01*
X100965000Y-76200000D02*
X100378579Y-77326504D01*
D11*
X168738819Y-84899047D02*
X168738819Y-85375237D01*
X168738819Y-85375237D02*
X169215009Y-85422856D01*
X169215009Y-85422856D02*
X169167390Y-85375237D01*
X169167390Y-85375237D02*
X169119771Y-85279999D01*
X169119771Y-85279999D02*
X169119771Y-85041904D01*
X169119771Y-85041904D02*
X169167390Y-84946666D01*
X169167390Y-84946666D02*
X169215009Y-84899047D01*
X169215009Y-84899047D02*
X169310247Y-84851428D01*
X169310247Y-84851428D02*
X169548342Y-84851428D01*
X169548342Y-84851428D02*
X169643580Y-84899047D01*
X169643580Y-84899047D02*
X169691200Y-84946666D01*
X169691200Y-84946666D02*
X169738819Y-85041904D01*
X169738819Y-85041904D02*
X169738819Y-85279999D01*
X169738819Y-85279999D02*
X169691200Y-85375237D01*
X169691200Y-85375237D02*
X169643580Y-85422856D01*
X169691200Y-84375237D02*
X169738819Y-84375237D01*
X169738819Y-84375237D02*
X169834057Y-84422856D01*
X169834057Y-84422856D02*
X169881676Y-84470475D01*
X168738819Y-83756190D02*
X168738819Y-83660952D01*
X168738819Y-83660952D02*
X168786438Y-83565714D01*
X168786438Y-83565714D02*
X168834057Y-83518095D01*
X168834057Y-83518095D02*
X168929295Y-83470476D01*
X168929295Y-83470476D02*
X169119771Y-83422857D01*
X169119771Y-83422857D02*
X169357866Y-83422857D01*
X169357866Y-83422857D02*
X169548342Y-83470476D01*
X169548342Y-83470476D02*
X169643580Y-83518095D01*
X169643580Y-83518095D02*
X169691200Y-83565714D01*
X169691200Y-83565714D02*
X169738819Y-83660952D01*
X169738819Y-83660952D02*
X169738819Y-83756190D01*
X169738819Y-83756190D02*
X169691200Y-83851428D01*
X169691200Y-83851428D02*
X169643580Y-83899047D01*
X169643580Y-83899047D02*
X169548342Y-83946666D01*
X169548342Y-83946666D02*
X169357866Y-83994285D01*
X169357866Y-83994285D02*
X169119771Y-83994285D01*
X169119771Y-83994285D02*
X168929295Y-83946666D01*
X168929295Y-83946666D02*
X168834057Y-83899047D01*
X168834057Y-83899047D02*
X168786438Y-83851428D01*
X168786438Y-83851428D02*
X168738819Y-83756190D01*
X169167390Y-82851428D02*
X169119771Y-82946666D01*
X169119771Y-82946666D02*
X169072152Y-82994285D01*
X169072152Y-82994285D02*
X168976914Y-83041904D01*
X168976914Y-83041904D02*
X168929295Y-83041904D01*
X168929295Y-83041904D02*
X168834057Y-82994285D01*
X168834057Y-82994285D02*
X168786438Y-82946666D01*
X168786438Y-82946666D02*
X168738819Y-82851428D01*
X168738819Y-82851428D02*
X168738819Y-82660952D01*
X168738819Y-82660952D02*
X168786438Y-82565714D01*
X168786438Y-82565714D02*
X168834057Y-82518095D01*
X168834057Y-82518095D02*
X168929295Y-82470476D01*
X168929295Y-82470476D02*
X168976914Y-82470476D01*
X168976914Y-82470476D02*
X169072152Y-82518095D01*
X169072152Y-82518095D02*
X169119771Y-82565714D01*
X169119771Y-82565714D02*
X169167390Y-82660952D01*
X169167390Y-82660952D02*
X169167390Y-82851428D01*
X169167390Y-82851428D02*
X169215009Y-82946666D01*
X169215009Y-82946666D02*
X169262628Y-82994285D01*
X169262628Y-82994285D02*
X169357866Y-83041904D01*
X169357866Y-83041904D02*
X169548342Y-83041904D01*
X169548342Y-83041904D02*
X169643580Y-82994285D01*
X169643580Y-82994285D02*
X169691200Y-82946666D01*
X169691200Y-82946666D02*
X169738819Y-82851428D01*
X169738819Y-82851428D02*
X169738819Y-82660952D01*
X169738819Y-82660952D02*
X169691200Y-82565714D01*
X169691200Y-82565714D02*
X169643580Y-82518095D01*
X169643580Y-82518095D02*
X169548342Y-82470476D01*
X169548342Y-82470476D02*
X169357866Y-82470476D01*
X169357866Y-82470476D02*
X169262628Y-82518095D01*
X169262628Y-82518095D02*
X169215009Y-82565714D01*
X169215009Y-82565714D02*
X169167390Y-82660952D01*
X168738819Y-81851428D02*
X168738819Y-81756190D01*
X168738819Y-81756190D02*
X168786438Y-81660952D01*
X168786438Y-81660952D02*
X168834057Y-81613333D01*
X168834057Y-81613333D02*
X168929295Y-81565714D01*
X168929295Y-81565714D02*
X169119771Y-81518095D01*
X169119771Y-81518095D02*
X169357866Y-81518095D01*
X169357866Y-81518095D02*
X169548342Y-81565714D01*
X169548342Y-81565714D02*
X169643580Y-81613333D01*
X169643580Y-81613333D02*
X169691200Y-81660952D01*
X169691200Y-81660952D02*
X169738819Y-81756190D01*
X169738819Y-81756190D02*
X169738819Y-81851428D01*
X169738819Y-81851428D02*
X169691200Y-81946666D01*
X169691200Y-81946666D02*
X169643580Y-81994285D01*
X169643580Y-81994285D02*
X169548342Y-82041904D01*
X169548342Y-82041904D02*
X169357866Y-82089523D01*
X169357866Y-82089523D02*
X169119771Y-82089523D01*
X169119771Y-82089523D02*
X168929295Y-82041904D01*
X168929295Y-82041904D02*
X168834057Y-81994285D01*
X168834057Y-81994285D02*
X168786438Y-81946666D01*
X168786438Y-81946666D02*
X168738819Y-81851428D01*
X168738819Y-80899047D02*
X168738819Y-80803809D01*
X168738819Y-80803809D02*
X168786438Y-80708571D01*
X168786438Y-80708571D02*
X168834057Y-80660952D01*
X168834057Y-80660952D02*
X168929295Y-80613333D01*
X168929295Y-80613333D02*
X169119771Y-80565714D01*
X169119771Y-80565714D02*
X169357866Y-80565714D01*
X169357866Y-80565714D02*
X169548342Y-80613333D01*
X169548342Y-80613333D02*
X169643580Y-80660952D01*
X169643580Y-80660952D02*
X169691200Y-80708571D01*
X169691200Y-80708571D02*
X169738819Y-80803809D01*
X169738819Y-80803809D02*
X169738819Y-80899047D01*
X169738819Y-80899047D02*
X169691200Y-80994285D01*
X169691200Y-80994285D02*
X169643580Y-81041904D01*
X169643580Y-81041904D02*
X169548342Y-81089523D01*
X169548342Y-81089523D02*
X169357866Y-81137142D01*
X169357866Y-81137142D02*
X169119771Y-81137142D01*
X169119771Y-81137142D02*
X168929295Y-81089523D01*
X168929295Y-81089523D02*
X168834057Y-81041904D01*
X168834057Y-81041904D02*
X168786438Y-80994285D01*
X168786438Y-80994285D02*
X168738819Y-80899047D01*
X169738819Y-79375237D02*
X169072152Y-79375237D01*
X169167390Y-79375237D02*
X169119771Y-79327618D01*
X169119771Y-79327618D02*
X169072152Y-79232380D01*
X169072152Y-79232380D02*
X169072152Y-79089523D01*
X169072152Y-79089523D02*
X169119771Y-78994285D01*
X169119771Y-78994285D02*
X169215009Y-78946666D01*
X169215009Y-78946666D02*
X169738819Y-78946666D01*
X169215009Y-78946666D02*
X169119771Y-78899047D01*
X169119771Y-78899047D02*
X169072152Y-78803809D01*
X169072152Y-78803809D02*
X169072152Y-78660952D01*
X169072152Y-78660952D02*
X169119771Y-78565713D01*
X169119771Y-78565713D02*
X169215009Y-78518094D01*
X169215009Y-78518094D02*
X169738819Y-78518094D01*
X169738819Y-78041904D02*
X169072152Y-78041904D01*
X169167390Y-78041904D02*
X169119771Y-77994285D01*
X169119771Y-77994285D02*
X169072152Y-77899047D01*
X169072152Y-77899047D02*
X169072152Y-77756190D01*
X169072152Y-77756190D02*
X169119771Y-77660952D01*
X169119771Y-77660952D02*
X169215009Y-77613333D01*
X169215009Y-77613333D02*
X169738819Y-77613333D01*
X169215009Y-77613333D02*
X169119771Y-77565714D01*
X169119771Y-77565714D02*
X169072152Y-77470476D01*
X169072152Y-77470476D02*
X169072152Y-77327619D01*
X169072152Y-77327619D02*
X169119771Y-77232380D01*
X169119771Y-77232380D02*
X169215009Y-77184761D01*
X169215009Y-77184761D02*
X169738819Y-77184761D01*
D10*
X182009442Y-78740000D02*
X169847580Y-78740000D01*
X182009442Y-83820000D02*
X169847580Y-83820000D01*
X170434000Y-78740000D02*
X170434000Y-83820000D01*
X170434000Y-78740000D02*
X170434000Y-83820000D01*
X170434000Y-78740000D02*
X171020421Y-79866504D01*
X170434000Y-78740000D02*
X169847579Y-79866504D01*
X170434000Y-83820000D02*
X169847579Y-82693496D01*
X170434000Y-83820000D02*
X171020421Y-82693496D01*
D11*
X107833966Y-98380819D02*
X108453013Y-98380819D01*
X108453013Y-98380819D02*
X108119680Y-98761771D01*
X108119680Y-98761771D02*
X108262537Y-98761771D01*
X108262537Y-98761771D02*
X108357775Y-98809390D01*
X108357775Y-98809390D02*
X108405394Y-98857009D01*
X108405394Y-98857009D02*
X108453013Y-98952247D01*
X108453013Y-98952247D02*
X108453013Y-99190342D01*
X108453013Y-99190342D02*
X108405394Y-99285580D01*
X108405394Y-99285580D02*
X108357775Y-99333200D01*
X108357775Y-99333200D02*
X108262537Y-99380819D01*
X108262537Y-99380819D02*
X107976823Y-99380819D01*
X107976823Y-99380819D02*
X107881585Y-99333200D01*
X107881585Y-99333200D02*
X107833966Y-99285580D01*
X108929204Y-99333200D02*
X108929204Y-99380819D01*
X108929204Y-99380819D02*
X108881585Y-99476057D01*
X108881585Y-99476057D02*
X108833966Y-99523676D01*
X109500632Y-98809390D02*
X109405394Y-98761771D01*
X109405394Y-98761771D02*
X109357775Y-98714152D01*
X109357775Y-98714152D02*
X109310156Y-98618914D01*
X109310156Y-98618914D02*
X109310156Y-98571295D01*
X109310156Y-98571295D02*
X109357775Y-98476057D01*
X109357775Y-98476057D02*
X109405394Y-98428438D01*
X109405394Y-98428438D02*
X109500632Y-98380819D01*
X109500632Y-98380819D02*
X109691108Y-98380819D01*
X109691108Y-98380819D02*
X109786346Y-98428438D01*
X109786346Y-98428438D02*
X109833965Y-98476057D01*
X109833965Y-98476057D02*
X109881584Y-98571295D01*
X109881584Y-98571295D02*
X109881584Y-98618914D01*
X109881584Y-98618914D02*
X109833965Y-98714152D01*
X109833965Y-98714152D02*
X109786346Y-98761771D01*
X109786346Y-98761771D02*
X109691108Y-98809390D01*
X109691108Y-98809390D02*
X109500632Y-98809390D01*
X109500632Y-98809390D02*
X109405394Y-98857009D01*
X109405394Y-98857009D02*
X109357775Y-98904628D01*
X109357775Y-98904628D02*
X109310156Y-98999866D01*
X109310156Y-98999866D02*
X109310156Y-99190342D01*
X109310156Y-99190342D02*
X109357775Y-99285580D01*
X109357775Y-99285580D02*
X109405394Y-99333200D01*
X109405394Y-99333200D02*
X109500632Y-99380819D01*
X109500632Y-99380819D02*
X109691108Y-99380819D01*
X109691108Y-99380819D02*
X109786346Y-99333200D01*
X109786346Y-99333200D02*
X109833965Y-99285580D01*
X109833965Y-99285580D02*
X109881584Y-99190342D01*
X109881584Y-99190342D02*
X109881584Y-98999866D01*
X109881584Y-98999866D02*
X109833965Y-98904628D01*
X109833965Y-98904628D02*
X109786346Y-98857009D01*
X109786346Y-98857009D02*
X109691108Y-98809390D01*
X110833965Y-99380819D02*
X110262537Y-99380819D01*
X110548251Y-99380819D02*
X110548251Y-98380819D01*
X110548251Y-98380819D02*
X110453013Y-98523676D01*
X110453013Y-98523676D02*
X110357775Y-98618914D01*
X110357775Y-98618914D02*
X110262537Y-98666533D01*
X111453013Y-98380819D02*
X111548251Y-98380819D01*
X111548251Y-98380819D02*
X111643489Y-98428438D01*
X111643489Y-98428438D02*
X111691108Y-98476057D01*
X111691108Y-98476057D02*
X111738727Y-98571295D01*
X111738727Y-98571295D02*
X111786346Y-98761771D01*
X111786346Y-98761771D02*
X111786346Y-98999866D01*
X111786346Y-98999866D02*
X111738727Y-99190342D01*
X111738727Y-99190342D02*
X111691108Y-99285580D01*
X111691108Y-99285580D02*
X111643489Y-99333200D01*
X111643489Y-99333200D02*
X111548251Y-99380819D01*
X111548251Y-99380819D02*
X111453013Y-99380819D01*
X111453013Y-99380819D02*
X111357775Y-99333200D01*
X111357775Y-99333200D02*
X111310156Y-99285580D01*
X111310156Y-99285580D02*
X111262537Y-99190342D01*
X111262537Y-99190342D02*
X111214918Y-98999866D01*
X111214918Y-98999866D02*
X111214918Y-98761771D01*
X111214918Y-98761771D02*
X111262537Y-98571295D01*
X111262537Y-98571295D02*
X111310156Y-98476057D01*
X111310156Y-98476057D02*
X111357775Y-98428438D01*
X111357775Y-98428438D02*
X111453013Y-98380819D01*
X112405394Y-98380819D02*
X112500632Y-98380819D01*
X112500632Y-98380819D02*
X112595870Y-98428438D01*
X112595870Y-98428438D02*
X112643489Y-98476057D01*
X112643489Y-98476057D02*
X112691108Y-98571295D01*
X112691108Y-98571295D02*
X112738727Y-98761771D01*
X112738727Y-98761771D02*
X112738727Y-98999866D01*
X112738727Y-98999866D02*
X112691108Y-99190342D01*
X112691108Y-99190342D02*
X112643489Y-99285580D01*
X112643489Y-99285580D02*
X112595870Y-99333200D01*
X112595870Y-99333200D02*
X112500632Y-99380819D01*
X112500632Y-99380819D02*
X112405394Y-99380819D01*
X112405394Y-99380819D02*
X112310156Y-99333200D01*
X112310156Y-99333200D02*
X112262537Y-99285580D01*
X112262537Y-99285580D02*
X112214918Y-99190342D01*
X112214918Y-99190342D02*
X112167299Y-98999866D01*
X112167299Y-98999866D02*
X112167299Y-98761771D01*
X112167299Y-98761771D02*
X112214918Y-98571295D01*
X112214918Y-98571295D02*
X112262537Y-98476057D01*
X112262537Y-98476057D02*
X112310156Y-98428438D01*
X112310156Y-98428438D02*
X112405394Y-98380819D01*
X113929204Y-99380819D02*
X113929204Y-98714152D01*
X113929204Y-98809390D02*
X113976823Y-98761771D01*
X113976823Y-98761771D02*
X114072061Y-98714152D01*
X114072061Y-98714152D02*
X114214918Y-98714152D01*
X114214918Y-98714152D02*
X114310156Y-98761771D01*
X114310156Y-98761771D02*
X114357775Y-98857009D01*
X114357775Y-98857009D02*
X114357775Y-99380819D01*
X114357775Y-98857009D02*
X114405394Y-98761771D01*
X114405394Y-98761771D02*
X114500632Y-98714152D01*
X114500632Y-98714152D02*
X114643489Y-98714152D01*
X114643489Y-98714152D02*
X114738728Y-98761771D01*
X114738728Y-98761771D02*
X114786347Y-98857009D01*
X114786347Y-98857009D02*
X114786347Y-99380819D01*
X115262537Y-99380819D02*
X115262537Y-98714152D01*
X115262537Y-98809390D02*
X115310156Y-98761771D01*
X115310156Y-98761771D02*
X115405394Y-98714152D01*
X115405394Y-98714152D02*
X115548251Y-98714152D01*
X115548251Y-98714152D02*
X115643489Y-98761771D01*
X115643489Y-98761771D02*
X115691108Y-98857009D01*
X115691108Y-98857009D02*
X115691108Y-99380819D01*
X115691108Y-98857009D02*
X115738727Y-98761771D01*
X115738727Y-98761771D02*
X115833965Y-98714152D01*
X115833965Y-98714152D02*
X115976822Y-98714152D01*
X115976822Y-98714152D02*
X116072061Y-98761771D01*
X116072061Y-98761771D02*
X116119680Y-98857009D01*
X116119680Y-98857009D02*
X116119680Y-99380819D01*
D10*
X113929442Y-99830000D02*
X113929442Y-99489580D01*
X110119442Y-99830000D02*
X110119442Y-99489580D01*
X113929442Y-100076000D02*
X110119442Y-100076000D01*
X113929442Y-100076000D02*
X110119442Y-100076000D01*
X113929442Y-100076000D02*
X112802938Y-100662421D01*
X113929442Y-100076000D02*
X112802938Y-99489579D01*
X110119442Y-100076000D02*
X111245946Y-99489579D01*
X110119442Y-100076000D02*
X111245946Y-100662421D01*
D11*
X147600871Y-67313390D02*
X147505633Y-67265771D01*
X147505633Y-67265771D02*
X147458014Y-67218152D01*
X147458014Y-67218152D02*
X147410395Y-67122914D01*
X147410395Y-67122914D02*
X147410395Y-67075295D01*
X147410395Y-67075295D02*
X147458014Y-66980057D01*
X147458014Y-66980057D02*
X147505633Y-66932438D01*
X147505633Y-66932438D02*
X147600871Y-66884819D01*
X147600871Y-66884819D02*
X147791347Y-66884819D01*
X147791347Y-66884819D02*
X147886585Y-66932438D01*
X147886585Y-66932438D02*
X147934204Y-66980057D01*
X147934204Y-66980057D02*
X147981823Y-67075295D01*
X147981823Y-67075295D02*
X147981823Y-67122914D01*
X147981823Y-67122914D02*
X147934204Y-67218152D01*
X147934204Y-67218152D02*
X147886585Y-67265771D01*
X147886585Y-67265771D02*
X147791347Y-67313390D01*
X147791347Y-67313390D02*
X147600871Y-67313390D01*
X147600871Y-67313390D02*
X147505633Y-67361009D01*
X147505633Y-67361009D02*
X147458014Y-67408628D01*
X147458014Y-67408628D02*
X147410395Y-67503866D01*
X147410395Y-67503866D02*
X147410395Y-67694342D01*
X147410395Y-67694342D02*
X147458014Y-67789580D01*
X147458014Y-67789580D02*
X147505633Y-67837200D01*
X147505633Y-67837200D02*
X147600871Y-67884819D01*
X147600871Y-67884819D02*
X147791347Y-67884819D01*
X147791347Y-67884819D02*
X147886585Y-67837200D01*
X147886585Y-67837200D02*
X147934204Y-67789580D01*
X147934204Y-67789580D02*
X147981823Y-67694342D01*
X147981823Y-67694342D02*
X147981823Y-67503866D01*
X147981823Y-67503866D02*
X147934204Y-67408628D01*
X147934204Y-67408628D02*
X147886585Y-67361009D01*
X147886585Y-67361009D02*
X147791347Y-67313390D01*
X148315157Y-66884819D02*
X148934204Y-66884819D01*
X148934204Y-66884819D02*
X148600871Y-67265771D01*
X148600871Y-67265771D02*
X148743728Y-67265771D01*
X148743728Y-67265771D02*
X148838966Y-67313390D01*
X148838966Y-67313390D02*
X148886585Y-67361009D01*
X148886585Y-67361009D02*
X148934204Y-67456247D01*
X148934204Y-67456247D02*
X148934204Y-67694342D01*
X148934204Y-67694342D02*
X148886585Y-67789580D01*
X148886585Y-67789580D02*
X148838966Y-67837200D01*
X148838966Y-67837200D02*
X148743728Y-67884819D01*
X148743728Y-67884819D02*
X148458014Y-67884819D01*
X148458014Y-67884819D02*
X148362776Y-67837200D01*
X148362776Y-67837200D02*
X148315157Y-67789580D01*
X149410395Y-67837200D02*
X149410395Y-67884819D01*
X149410395Y-67884819D02*
X149362776Y-67980057D01*
X149362776Y-67980057D02*
X149315157Y-68027676D01*
X149981823Y-67313390D02*
X149886585Y-67265771D01*
X149886585Y-67265771D02*
X149838966Y-67218152D01*
X149838966Y-67218152D02*
X149791347Y-67122914D01*
X149791347Y-67122914D02*
X149791347Y-67075295D01*
X149791347Y-67075295D02*
X149838966Y-66980057D01*
X149838966Y-66980057D02*
X149886585Y-66932438D01*
X149886585Y-66932438D02*
X149981823Y-66884819D01*
X149981823Y-66884819D02*
X150172299Y-66884819D01*
X150172299Y-66884819D02*
X150267537Y-66932438D01*
X150267537Y-66932438D02*
X150315156Y-66980057D01*
X150315156Y-66980057D02*
X150362775Y-67075295D01*
X150362775Y-67075295D02*
X150362775Y-67122914D01*
X150362775Y-67122914D02*
X150315156Y-67218152D01*
X150315156Y-67218152D02*
X150267537Y-67265771D01*
X150267537Y-67265771D02*
X150172299Y-67313390D01*
X150172299Y-67313390D02*
X149981823Y-67313390D01*
X149981823Y-67313390D02*
X149886585Y-67361009D01*
X149886585Y-67361009D02*
X149838966Y-67408628D01*
X149838966Y-67408628D02*
X149791347Y-67503866D01*
X149791347Y-67503866D02*
X149791347Y-67694342D01*
X149791347Y-67694342D02*
X149838966Y-67789580D01*
X149838966Y-67789580D02*
X149886585Y-67837200D01*
X149886585Y-67837200D02*
X149981823Y-67884819D01*
X149981823Y-67884819D02*
X150172299Y-67884819D01*
X150172299Y-67884819D02*
X150267537Y-67837200D01*
X150267537Y-67837200D02*
X150315156Y-67789580D01*
X150315156Y-67789580D02*
X150362775Y-67694342D01*
X150362775Y-67694342D02*
X150362775Y-67503866D01*
X150362775Y-67503866D02*
X150315156Y-67408628D01*
X150315156Y-67408628D02*
X150267537Y-67361009D01*
X150267537Y-67361009D02*
X150172299Y-67313390D01*
X150743728Y-66980057D02*
X150791347Y-66932438D01*
X150791347Y-66932438D02*
X150886585Y-66884819D01*
X150886585Y-66884819D02*
X151124680Y-66884819D01*
X151124680Y-66884819D02*
X151219918Y-66932438D01*
X151219918Y-66932438D02*
X151267537Y-66980057D01*
X151267537Y-66980057D02*
X151315156Y-67075295D01*
X151315156Y-67075295D02*
X151315156Y-67170533D01*
X151315156Y-67170533D02*
X151267537Y-67313390D01*
X151267537Y-67313390D02*
X150696109Y-67884819D01*
X150696109Y-67884819D02*
X151315156Y-67884819D01*
X151934204Y-66884819D02*
X152029442Y-66884819D01*
X152029442Y-66884819D02*
X152124680Y-66932438D01*
X152124680Y-66932438D02*
X152172299Y-66980057D01*
X152172299Y-66980057D02*
X152219918Y-67075295D01*
X152219918Y-67075295D02*
X152267537Y-67265771D01*
X152267537Y-67265771D02*
X152267537Y-67503866D01*
X152267537Y-67503866D02*
X152219918Y-67694342D01*
X152219918Y-67694342D02*
X152172299Y-67789580D01*
X152172299Y-67789580D02*
X152124680Y-67837200D01*
X152124680Y-67837200D02*
X152029442Y-67884819D01*
X152029442Y-67884819D02*
X151934204Y-67884819D01*
X151934204Y-67884819D02*
X151838966Y-67837200D01*
X151838966Y-67837200D02*
X151791347Y-67789580D01*
X151791347Y-67789580D02*
X151743728Y-67694342D01*
X151743728Y-67694342D02*
X151696109Y-67503866D01*
X151696109Y-67503866D02*
X151696109Y-67265771D01*
X151696109Y-67265771D02*
X151743728Y-67075295D01*
X151743728Y-67075295D02*
X151791347Y-66980057D01*
X151791347Y-66980057D02*
X151838966Y-66932438D01*
X151838966Y-66932438D02*
X151934204Y-66884819D01*
X152886585Y-66884819D02*
X152981823Y-66884819D01*
X152981823Y-66884819D02*
X153077061Y-66932438D01*
X153077061Y-66932438D02*
X153124680Y-66980057D01*
X153124680Y-66980057D02*
X153172299Y-67075295D01*
X153172299Y-67075295D02*
X153219918Y-67265771D01*
X153219918Y-67265771D02*
X153219918Y-67503866D01*
X153219918Y-67503866D02*
X153172299Y-67694342D01*
X153172299Y-67694342D02*
X153124680Y-67789580D01*
X153124680Y-67789580D02*
X153077061Y-67837200D01*
X153077061Y-67837200D02*
X152981823Y-67884819D01*
X152981823Y-67884819D02*
X152886585Y-67884819D01*
X152886585Y-67884819D02*
X152791347Y-67837200D01*
X152791347Y-67837200D02*
X152743728Y-67789580D01*
X152743728Y-67789580D02*
X152696109Y-67694342D01*
X152696109Y-67694342D02*
X152648490Y-67503866D01*
X152648490Y-67503866D02*
X152648490Y-67265771D01*
X152648490Y-67265771D02*
X152696109Y-67075295D01*
X152696109Y-67075295D02*
X152743728Y-66980057D01*
X152743728Y-66980057D02*
X152791347Y-66932438D01*
X152791347Y-66932438D02*
X152886585Y-66884819D01*
X154410395Y-67884819D02*
X154410395Y-67218152D01*
X154410395Y-67313390D02*
X154458014Y-67265771D01*
X154458014Y-67265771D02*
X154553252Y-67218152D01*
X154553252Y-67218152D02*
X154696109Y-67218152D01*
X154696109Y-67218152D02*
X154791347Y-67265771D01*
X154791347Y-67265771D02*
X154838966Y-67361009D01*
X154838966Y-67361009D02*
X154838966Y-67884819D01*
X154838966Y-67361009D02*
X154886585Y-67265771D01*
X154886585Y-67265771D02*
X154981823Y-67218152D01*
X154981823Y-67218152D02*
X155124680Y-67218152D01*
X155124680Y-67218152D02*
X155219919Y-67265771D01*
X155219919Y-67265771D02*
X155267538Y-67361009D01*
X155267538Y-67361009D02*
X155267538Y-67884819D01*
X155743728Y-67884819D02*
X155743728Y-67218152D01*
X155743728Y-67313390D02*
X155791347Y-67265771D01*
X155791347Y-67265771D02*
X155886585Y-67218152D01*
X155886585Y-67218152D02*
X156029442Y-67218152D01*
X156029442Y-67218152D02*
X156124680Y-67265771D01*
X156124680Y-67265771D02*
X156172299Y-67361009D01*
X156172299Y-67361009D02*
X156172299Y-67884819D01*
X156172299Y-67361009D02*
X156219918Y-67265771D01*
X156219918Y-67265771D02*
X156315156Y-67218152D01*
X156315156Y-67218152D02*
X156458013Y-67218152D01*
X156458013Y-67218152D02*
X156553252Y-67265771D01*
X156553252Y-67265771D02*
X156600871Y-67361009D01*
X156600871Y-67361009D02*
X156600871Y-67884819D01*
D10*
X110119442Y-82050000D02*
X110119442Y-67993580D01*
X193939442Y-82050000D02*
X193939442Y-67993580D01*
X110119442Y-68580000D02*
X193939442Y-68580000D01*
X110119442Y-68580000D02*
X193939442Y-68580000D01*
X110119442Y-68580000D02*
X111245946Y-67993579D01*
X110119442Y-68580000D02*
X111245946Y-69166421D01*
X193939442Y-68580000D02*
X192812938Y-69166421D01*
X193939442Y-68580000D02*
X192812938Y-67993579D01*
D11*
X173371381Y-85410819D02*
X172799953Y-85410819D01*
X173085667Y-85410819D02*
X173085667Y-84410819D01*
X173085667Y-84410819D02*
X172990429Y-84553676D01*
X172990429Y-84553676D02*
X172895191Y-84648914D01*
X172895191Y-84648914D02*
X172799953Y-84696533D01*
X173990429Y-84410819D02*
X174085667Y-84410819D01*
X174085667Y-84410819D02*
X174180905Y-84458438D01*
X174180905Y-84458438D02*
X174228524Y-84506057D01*
X174228524Y-84506057D02*
X174276143Y-84601295D01*
X174276143Y-84601295D02*
X174323762Y-84791771D01*
X174323762Y-84791771D02*
X174323762Y-85029866D01*
X174323762Y-85029866D02*
X174276143Y-85220342D01*
X174276143Y-85220342D02*
X174228524Y-85315580D01*
X174228524Y-85315580D02*
X174180905Y-85363200D01*
X174180905Y-85363200D02*
X174085667Y-85410819D01*
X174085667Y-85410819D02*
X173990429Y-85410819D01*
X173990429Y-85410819D02*
X173895191Y-85363200D01*
X173895191Y-85363200D02*
X173847572Y-85315580D01*
X173847572Y-85315580D02*
X173799953Y-85220342D01*
X173799953Y-85220342D02*
X173752334Y-85029866D01*
X173752334Y-85029866D02*
X173752334Y-84791771D01*
X173752334Y-84791771D02*
X173799953Y-84601295D01*
X173799953Y-84601295D02*
X173847572Y-84506057D01*
X173847572Y-84506057D02*
X173895191Y-84458438D01*
X173895191Y-84458438D02*
X173990429Y-84410819D01*
X174799953Y-85363200D02*
X174799953Y-85410819D01*
X174799953Y-85410819D02*
X174752334Y-85506057D01*
X174752334Y-85506057D02*
X174704715Y-85553676D01*
X175752333Y-85410819D02*
X175180905Y-85410819D01*
X175466619Y-85410819D02*
X175466619Y-84410819D01*
X175466619Y-84410819D02*
X175371381Y-84553676D01*
X175371381Y-84553676D02*
X175276143Y-84648914D01*
X175276143Y-84648914D02*
X175180905Y-84696533D01*
X176609476Y-84410819D02*
X176419000Y-84410819D01*
X176419000Y-84410819D02*
X176323762Y-84458438D01*
X176323762Y-84458438D02*
X176276143Y-84506057D01*
X176276143Y-84506057D02*
X176180905Y-84648914D01*
X176180905Y-84648914D02*
X176133286Y-84839390D01*
X176133286Y-84839390D02*
X176133286Y-85220342D01*
X176133286Y-85220342D02*
X176180905Y-85315580D01*
X176180905Y-85315580D02*
X176228524Y-85363200D01*
X176228524Y-85363200D02*
X176323762Y-85410819D01*
X176323762Y-85410819D02*
X176514238Y-85410819D01*
X176514238Y-85410819D02*
X176609476Y-85363200D01*
X176609476Y-85363200D02*
X176657095Y-85315580D01*
X176657095Y-85315580D02*
X176704714Y-85220342D01*
X176704714Y-85220342D02*
X176704714Y-84982247D01*
X176704714Y-84982247D02*
X176657095Y-84887009D01*
X176657095Y-84887009D02*
X176609476Y-84839390D01*
X176609476Y-84839390D02*
X176514238Y-84791771D01*
X176514238Y-84791771D02*
X176323762Y-84791771D01*
X176323762Y-84791771D02*
X176228524Y-84839390D01*
X176228524Y-84839390D02*
X176180905Y-84887009D01*
X176180905Y-84887009D02*
X176133286Y-84982247D01*
X177323762Y-84410819D02*
X177419000Y-84410819D01*
X177419000Y-84410819D02*
X177514238Y-84458438D01*
X177514238Y-84458438D02*
X177561857Y-84506057D01*
X177561857Y-84506057D02*
X177609476Y-84601295D01*
X177609476Y-84601295D02*
X177657095Y-84791771D01*
X177657095Y-84791771D02*
X177657095Y-85029866D01*
X177657095Y-85029866D02*
X177609476Y-85220342D01*
X177609476Y-85220342D02*
X177561857Y-85315580D01*
X177561857Y-85315580D02*
X177514238Y-85363200D01*
X177514238Y-85363200D02*
X177419000Y-85410819D01*
X177419000Y-85410819D02*
X177323762Y-85410819D01*
X177323762Y-85410819D02*
X177228524Y-85363200D01*
X177228524Y-85363200D02*
X177180905Y-85315580D01*
X177180905Y-85315580D02*
X177133286Y-85220342D01*
X177133286Y-85220342D02*
X177085667Y-85029866D01*
X177085667Y-85029866D02*
X177085667Y-84791771D01*
X177085667Y-84791771D02*
X177133286Y-84601295D01*
X177133286Y-84601295D02*
X177180905Y-84506057D01*
X177180905Y-84506057D02*
X177228524Y-84458438D01*
X177228524Y-84458438D02*
X177323762Y-84410819D01*
X178276143Y-84410819D02*
X178371381Y-84410819D01*
X178371381Y-84410819D02*
X178466619Y-84458438D01*
X178466619Y-84458438D02*
X178514238Y-84506057D01*
X178514238Y-84506057D02*
X178561857Y-84601295D01*
X178561857Y-84601295D02*
X178609476Y-84791771D01*
X178609476Y-84791771D02*
X178609476Y-85029866D01*
X178609476Y-85029866D02*
X178561857Y-85220342D01*
X178561857Y-85220342D02*
X178514238Y-85315580D01*
X178514238Y-85315580D02*
X178466619Y-85363200D01*
X178466619Y-85363200D02*
X178371381Y-85410819D01*
X178371381Y-85410819D02*
X178276143Y-85410819D01*
X178276143Y-85410819D02*
X178180905Y-85363200D01*
X178180905Y-85363200D02*
X178133286Y-85315580D01*
X178133286Y-85315580D02*
X178085667Y-85220342D01*
X178085667Y-85220342D02*
X178038048Y-85029866D01*
X178038048Y-85029866D02*
X178038048Y-84791771D01*
X178038048Y-84791771D02*
X178085667Y-84601295D01*
X178085667Y-84601295D02*
X178133286Y-84506057D01*
X178133286Y-84506057D02*
X178180905Y-84458438D01*
X178180905Y-84458438D02*
X178276143Y-84410819D01*
X179799953Y-85410819D02*
X179799953Y-84744152D01*
X179799953Y-84839390D02*
X179847572Y-84791771D01*
X179847572Y-84791771D02*
X179942810Y-84744152D01*
X179942810Y-84744152D02*
X180085667Y-84744152D01*
X180085667Y-84744152D02*
X180180905Y-84791771D01*
X180180905Y-84791771D02*
X180228524Y-84887009D01*
X180228524Y-84887009D02*
X180228524Y-85410819D01*
X180228524Y-84887009D02*
X180276143Y-84791771D01*
X180276143Y-84791771D02*
X180371381Y-84744152D01*
X180371381Y-84744152D02*
X180514238Y-84744152D01*
X180514238Y-84744152D02*
X180609477Y-84791771D01*
X180609477Y-84791771D02*
X180657096Y-84887009D01*
X180657096Y-84887009D02*
X180657096Y-85410819D01*
X181133286Y-85410819D02*
X181133286Y-84744152D01*
X181133286Y-84839390D02*
X181180905Y-84791771D01*
X181180905Y-84791771D02*
X181276143Y-84744152D01*
X181276143Y-84744152D02*
X181419000Y-84744152D01*
X181419000Y-84744152D02*
X181514238Y-84791771D01*
X181514238Y-84791771D02*
X181561857Y-84887009D01*
X181561857Y-84887009D02*
X181561857Y-85410819D01*
X181561857Y-84887009D02*
X181609476Y-84791771D01*
X181609476Y-84791771D02*
X181704714Y-84744152D01*
X181704714Y-84744152D02*
X181847571Y-84744152D01*
X181847571Y-84744152D02*
X181942810Y-84791771D01*
X181942810Y-84791771D02*
X181990429Y-84887009D01*
X181990429Y-84887009D02*
X181990429Y-85410819D01*
D10*
X172339000Y-80002000D02*
X172339000Y-86692420D01*
X182499000Y-80002000D02*
X182499000Y-86692420D01*
X172339000Y-86106000D02*
X182499000Y-86106000D01*
X172339000Y-86106000D02*
X182499000Y-86106000D01*
X172339000Y-86106000D02*
X173465504Y-85519579D01*
X172339000Y-86106000D02*
X173465504Y-86692421D01*
X182499000Y-86106000D02*
X181372496Y-86692421D01*
X182499000Y-86106000D02*
X181372496Y-85519579D01*
D11*
X174452375Y-127320674D02*
X174404952Y-127272859D01*
X174404952Y-127272859D02*
X174357725Y-127177426D01*
X174357725Y-127177426D02*
X174358704Y-126939333D01*
X174358704Y-126939333D02*
X174406714Y-126844291D01*
X174406714Y-126844291D02*
X174454529Y-126796868D01*
X174454529Y-126796868D02*
X174549962Y-126749641D01*
X174549962Y-126749641D02*
X174645199Y-126750033D01*
X174645199Y-126750033D02*
X174787859Y-126798239D01*
X174787859Y-126798239D02*
X175356934Y-127372012D01*
X175356934Y-127372012D02*
X175359479Y-126752969D01*
X175313818Y-126276587D02*
X175361436Y-126276783D01*
X175361436Y-126276783D02*
X175456478Y-126324793D01*
X175456478Y-126324793D02*
X175503901Y-126372607D01*
X174365164Y-125367918D02*
X174363207Y-125844104D01*
X174363207Y-125844104D02*
X174839197Y-125893681D01*
X174839197Y-125893681D02*
X174791774Y-125845866D01*
X174791774Y-125845866D02*
X174744547Y-125750433D01*
X174744547Y-125750433D02*
X174745526Y-125512340D01*
X174745526Y-125512340D02*
X174793536Y-125417299D01*
X174793536Y-125417299D02*
X174841351Y-125369876D01*
X174841351Y-125369876D02*
X174936784Y-125322649D01*
X174936784Y-125322649D02*
X175174877Y-125323627D01*
X175174877Y-125323627D02*
X175269918Y-125371638D01*
X175269918Y-125371638D02*
X175317341Y-125419452D01*
X175317341Y-125419452D02*
X175364568Y-125514885D01*
X175364568Y-125514885D02*
X175363590Y-125752978D01*
X175363590Y-125752978D02*
X175315579Y-125848020D01*
X175315579Y-125848020D02*
X175267765Y-125895443D01*
X174702214Y-124464534D02*
X175368875Y-124467275D01*
X174320286Y-124701061D02*
X175033587Y-124942091D01*
X175033587Y-124942091D02*
X175036132Y-124323048D01*
X174371820Y-123748884D02*
X174372212Y-123653647D01*
X174372212Y-123653647D02*
X174420222Y-123558605D01*
X174420222Y-123558605D02*
X174468036Y-123511182D01*
X174468036Y-123511182D02*
X174563469Y-123463955D01*
X174563469Y-123463955D02*
X174754140Y-123417120D01*
X174754140Y-123417120D02*
X174992233Y-123418098D01*
X174992233Y-123418098D02*
X175182512Y-123466500D01*
X175182512Y-123466500D02*
X175277553Y-123514510D01*
X175277553Y-123514510D02*
X175324976Y-123562325D01*
X175324976Y-123562325D02*
X175372203Y-123657758D01*
X175372203Y-123657758D02*
X175371812Y-123752995D01*
X175371812Y-123752995D02*
X175323801Y-123848037D01*
X175323801Y-123848037D02*
X175275987Y-123895459D01*
X175275987Y-123895459D02*
X175180554Y-123942687D01*
X175180554Y-123942687D02*
X174989884Y-123989522D01*
X174989884Y-123989522D02*
X174751790Y-123988543D01*
X174751790Y-123988543D02*
X174561512Y-123940142D01*
X174561512Y-123940142D02*
X174466470Y-123892131D01*
X174466470Y-123892131D02*
X174419047Y-123844317D01*
X174419047Y-123844317D02*
X174371820Y-123748884D01*
X174375735Y-122796511D02*
X174376127Y-122701274D01*
X174376127Y-122701274D02*
X174424137Y-122606232D01*
X174424137Y-122606232D02*
X174471951Y-122558809D01*
X174471951Y-122558809D02*
X174567384Y-122511582D01*
X174567384Y-122511582D02*
X174758055Y-122464747D01*
X174758055Y-122464747D02*
X174996148Y-122465725D01*
X174996148Y-122465725D02*
X175186427Y-122514127D01*
X175186427Y-122514127D02*
X175281468Y-122562137D01*
X175281468Y-122562137D02*
X175328891Y-122609952D01*
X175328891Y-122609952D02*
X175376118Y-122705385D01*
X175376118Y-122705385D02*
X175375727Y-122800622D01*
X175375727Y-122800622D02*
X175327717Y-122895664D01*
X175327717Y-122895664D02*
X175279902Y-122943086D01*
X175279902Y-122943086D02*
X175184469Y-122990314D01*
X175184469Y-122990314D02*
X174993799Y-123037149D01*
X174993799Y-123037149D02*
X174755706Y-123036170D01*
X174755706Y-123036170D02*
X174565427Y-122987769D01*
X174565427Y-122987769D02*
X174470385Y-122939759D01*
X174470385Y-122939759D02*
X174422962Y-122891944D01*
X174422962Y-122891944D02*
X174375735Y-122796511D01*
X175381991Y-121276825D02*
X174715330Y-121274084D01*
X174810567Y-121274476D02*
X174763145Y-121226662D01*
X174763145Y-121226662D02*
X174715917Y-121131229D01*
X174715917Y-121131229D02*
X174716505Y-120988373D01*
X174716505Y-120988373D02*
X174764515Y-120893331D01*
X174764515Y-120893331D02*
X174859948Y-120846104D01*
X174859948Y-120846104D02*
X175383753Y-120848257D01*
X174859948Y-120846104D02*
X174764906Y-120798094D01*
X174764906Y-120798094D02*
X174717679Y-120702661D01*
X174717679Y-120702661D02*
X174718267Y-120559805D01*
X174718267Y-120559805D02*
X174766277Y-120464763D01*
X174766277Y-120464763D02*
X174861710Y-120417536D01*
X174861710Y-120417536D02*
X175385515Y-120419689D01*
X175387472Y-119943503D02*
X174720811Y-119940763D01*
X174816049Y-119941154D02*
X174768626Y-119893340D01*
X174768626Y-119893340D02*
X174721399Y-119797907D01*
X174721399Y-119797907D02*
X174721986Y-119655051D01*
X174721986Y-119655051D02*
X174769996Y-119560009D01*
X174769996Y-119560009D02*
X174865429Y-119512782D01*
X174865429Y-119512782D02*
X175389234Y-119514936D01*
X174865429Y-119512782D02*
X174770388Y-119464772D01*
X174770388Y-119464772D02*
X174723161Y-119369339D01*
X174723161Y-119369339D02*
X174723748Y-119226483D01*
X174723748Y-119226483D02*
X174771758Y-119131442D01*
X174771758Y-119131442D02*
X174867191Y-119084214D01*
X174867191Y-119084214D02*
X175390996Y-119086368D01*
D10*
X176929446Y-121917945D02*
X175488142Y-121912020D01*
X176919004Y-124457945D02*
X175477700Y-124452020D01*
X176074557Y-121914430D02*
X176064115Y-124454430D01*
X176074557Y-121914430D02*
X176064115Y-124454430D01*
X176074557Y-121914430D02*
X176656342Y-123043335D01*
X176074557Y-121914430D02*
X175483510Y-123038513D01*
X176064115Y-124454430D02*
X175482330Y-123325525D01*
X176064115Y-124454430D02*
X176655162Y-123330347D01*
D11*
X184171602Y-119192819D02*
X183600174Y-119192819D01*
X183885888Y-119192819D02*
X183885888Y-118192819D01*
X183885888Y-118192819D02*
X183790650Y-118335676D01*
X183790650Y-118335676D02*
X183695412Y-118430914D01*
X183695412Y-118430914D02*
X183600174Y-118478533D01*
X185123983Y-119192819D02*
X184552555Y-119192819D01*
X184838269Y-119192819D02*
X184838269Y-118192819D01*
X184838269Y-118192819D02*
X184743031Y-118335676D01*
X184743031Y-118335676D02*
X184647793Y-118430914D01*
X184647793Y-118430914D02*
X184552555Y-118478533D01*
X185600174Y-119145200D02*
X185600174Y-119192819D01*
X185600174Y-119192819D02*
X185552555Y-119288057D01*
X185552555Y-119288057D02*
X185504936Y-119335676D01*
X186457316Y-118526152D02*
X186457316Y-119192819D01*
X186219221Y-118145200D02*
X185981126Y-118859485D01*
X185981126Y-118859485D02*
X186600173Y-118859485D01*
X187504935Y-119192819D02*
X186933507Y-119192819D01*
X187219221Y-119192819D02*
X187219221Y-118192819D01*
X187219221Y-118192819D02*
X187123983Y-118335676D01*
X187123983Y-118335676D02*
X187028745Y-118430914D01*
X187028745Y-118430914D02*
X186933507Y-118478533D01*
X187981126Y-119192819D02*
X188171602Y-119192819D01*
X188171602Y-119192819D02*
X188266840Y-119145200D01*
X188266840Y-119145200D02*
X188314459Y-119097580D01*
X188314459Y-119097580D02*
X188409697Y-118954723D01*
X188409697Y-118954723D02*
X188457316Y-118764247D01*
X188457316Y-118764247D02*
X188457316Y-118383295D01*
X188457316Y-118383295D02*
X188409697Y-118288057D01*
X188409697Y-118288057D02*
X188362078Y-118240438D01*
X188362078Y-118240438D02*
X188266840Y-118192819D01*
X188266840Y-118192819D02*
X188076364Y-118192819D01*
X188076364Y-118192819D02*
X187981126Y-118240438D01*
X187981126Y-118240438D02*
X187933507Y-118288057D01*
X187933507Y-118288057D02*
X187885888Y-118383295D01*
X187885888Y-118383295D02*
X187885888Y-118621390D01*
X187885888Y-118621390D02*
X187933507Y-118716628D01*
X187933507Y-118716628D02*
X187981126Y-118764247D01*
X187981126Y-118764247D02*
X188076364Y-118811866D01*
X188076364Y-118811866D02*
X188266840Y-118811866D01*
X188266840Y-118811866D02*
X188362078Y-118764247D01*
X188362078Y-118764247D02*
X188409697Y-118716628D01*
X188409697Y-118716628D02*
X188457316Y-118621390D01*
X189314459Y-118192819D02*
X189123983Y-118192819D01*
X189123983Y-118192819D02*
X189028745Y-118240438D01*
X189028745Y-118240438D02*
X188981126Y-118288057D01*
X188981126Y-118288057D02*
X188885888Y-118430914D01*
X188885888Y-118430914D02*
X188838269Y-118621390D01*
X188838269Y-118621390D02*
X188838269Y-119002342D01*
X188838269Y-119002342D02*
X188885888Y-119097580D01*
X188885888Y-119097580D02*
X188933507Y-119145200D01*
X188933507Y-119145200D02*
X189028745Y-119192819D01*
X189028745Y-119192819D02*
X189219221Y-119192819D01*
X189219221Y-119192819D02*
X189314459Y-119145200D01*
X189314459Y-119145200D02*
X189362078Y-119097580D01*
X189362078Y-119097580D02*
X189409697Y-119002342D01*
X189409697Y-119002342D02*
X189409697Y-118764247D01*
X189409697Y-118764247D02*
X189362078Y-118669009D01*
X189362078Y-118669009D02*
X189314459Y-118621390D01*
X189314459Y-118621390D02*
X189219221Y-118573771D01*
X189219221Y-118573771D02*
X189028745Y-118573771D01*
X189028745Y-118573771D02*
X188933507Y-118621390D01*
X188933507Y-118621390D02*
X188885888Y-118669009D01*
X188885888Y-118669009D02*
X188838269Y-118764247D01*
X190600174Y-119192819D02*
X190600174Y-118526152D01*
X190600174Y-118621390D02*
X190647793Y-118573771D01*
X190647793Y-118573771D02*
X190743031Y-118526152D01*
X190743031Y-118526152D02*
X190885888Y-118526152D01*
X190885888Y-118526152D02*
X190981126Y-118573771D01*
X190981126Y-118573771D02*
X191028745Y-118669009D01*
X191028745Y-118669009D02*
X191028745Y-119192819D01*
X191028745Y-118669009D02*
X191076364Y-118573771D01*
X191076364Y-118573771D02*
X191171602Y-118526152D01*
X191171602Y-118526152D02*
X191314459Y-118526152D01*
X191314459Y-118526152D02*
X191409698Y-118573771D01*
X191409698Y-118573771D02*
X191457317Y-118669009D01*
X191457317Y-118669009D02*
X191457317Y-119192819D01*
X191933507Y-119192819D02*
X191933507Y-118526152D01*
X191933507Y-118621390D02*
X191981126Y-118573771D01*
X191981126Y-118573771D02*
X192076364Y-118526152D01*
X192076364Y-118526152D02*
X192219221Y-118526152D01*
X192219221Y-118526152D02*
X192314459Y-118573771D01*
X192314459Y-118573771D02*
X192362078Y-118669009D01*
X192362078Y-118669009D02*
X192362078Y-119192819D01*
X192362078Y-118669009D02*
X192409697Y-118573771D01*
X192409697Y-118573771D02*
X192504935Y-118526152D01*
X192504935Y-118526152D02*
X192647792Y-118526152D01*
X192647792Y-118526152D02*
X192743031Y-118573771D01*
X192743031Y-118573771D02*
X192790650Y-118669009D01*
X192790650Y-118669009D02*
X192790650Y-119192819D01*
D10*
X182509442Y-117340000D02*
X182509442Y-120474420D01*
X193929000Y-117340000D02*
X193929000Y-120474420D01*
X182509442Y-119888000D02*
X193929000Y-119888000D01*
X182509442Y-119888000D02*
X193929000Y-119888000D01*
X182509442Y-119888000D02*
X183635946Y-119301579D01*
X182509442Y-119888000D02*
X183635946Y-120474421D01*
X193929000Y-119888000D02*
X192802496Y-120474421D01*
X193929000Y-119888000D02*
X192802496Y-119301579D01*
M02*
