%TF.GenerationSoftware,KiCad,Pcbnew,8.0.0*%
%TF.CreationDate,2024-03-19T17:03:54+01:00*%
%TF.ProjectId,PCB_Drone_THT,5043425f-4472-46f6-9e65-5f5448542e6b,rev?*%
%TF.SameCoordinates,Original*%
%TF.FileFunction,Copper,L1,Top*%
%TF.FilePolarity,Positive*%
%FSLAX46Y46*%
G04 Gerber Fmt 4.6, Leading zero omitted, Abs format (unit mm)*
G04 Created by KiCad (PCBNEW 8.0.0) date 2024-03-19 17:03:54*
%MOMM*%
%LPD*%
G01*
G04 APERTURE LIST*
G04 Aperture macros list*
%AMRoundRect*
0 Rectangle with rounded corners*
0 $1 Rounding radius*
0 $2 $3 $4 $5 $6 $7 $8 $9 X,Y pos of 4 corners*
0 Add a 4 corners polygon primitive as box body*
4,1,4,$2,$3,$4,$5,$6,$7,$8,$9,$2,$3,0*
0 Add four circle primitives for the rounded corners*
1,1,$1+$1,$2,$3*
1,1,$1+$1,$4,$5*
1,1,$1+$1,$6,$7*
1,1,$1+$1,$8,$9*
0 Add four rect primitives between the rounded corners*
20,1,$1+$1,$2,$3,$4,$5,0*
20,1,$1+$1,$4,$5,$6,$7,0*
20,1,$1+$1,$6,$7,$8,$9,0*
20,1,$1+$1,$8,$9,$2,$3,0*%
G04 Aperture macros list end*
%TA.AperFunction,ComponentPad*%
%ADD10R,2.400000X1.600000*%
%TD*%
%TA.AperFunction,ComponentPad*%
%ADD11O,2.400000X1.600000*%
%TD*%
%TA.AperFunction,ComponentPad*%
%ADD12RoundRect,0.250000X-0.750000X0.600000X-0.750000X-0.600000X0.750000X-0.600000X0.750000X0.600000X0*%
%TD*%
%TA.AperFunction,ComponentPad*%
%ADD13O,2.000000X1.700000*%
%TD*%
%TA.AperFunction,ComponentPad*%
%ADD14R,1.200000X2.000000*%
%TD*%
%TA.AperFunction,ComponentPad*%
%ADD15O,1.200000X2.000000*%
%TD*%
%TA.AperFunction,ComponentPad*%
%ADD16RoundRect,0.250000X-0.725000X0.600000X-0.725000X-0.600000X0.725000X-0.600000X0.725000X0.600000X0*%
%TD*%
%TA.AperFunction,ComponentPad*%
%ADD17O,1.950000X1.700000*%
%TD*%
%TA.AperFunction,Conductor*%
%ADD18C,1.500000*%
%TD*%
G04 APERTURE END LIST*
D10*
%TO.P,U1,1,I1*%
%TO.N,Net-(DevBoard1-GPIO18)*%
X134249442Y-102500000D03*
D11*
%TO.P,U1,2,I2*%
%TO.N,Net-(DevBoard1-GPIO19)*%
X134249442Y-105040000D03*
%TO.P,U1,3,I3*%
%TO.N,Net-(DevBoard1-GPIO21)*%
X134249442Y-107580000D03*
%TO.P,U1,4,I4*%
%TO.N,Net-(DevBoard1-GPIO22)*%
X134249442Y-110120000D03*
%TO.P,U1,5,I5*%
%TO.N,unconnected-(U1-I5-Pad5)*%
X134249442Y-112660000D03*
%TO.P,U1,6,I6*%
%TO.N,unconnected-(U1-I6-Pad6)*%
X134249442Y-115200000D03*
%TO.P,U1,7,I7*%
%TO.N,unconnected-(U1-I7-Pad7)*%
X134249442Y-117740000D03*
%TO.P,U1,8,GND*%
%TO.N,GND*%
X134249442Y-120280000D03*
%TO.P,U1,9,COM*%
%TO.N,unconnected-(U1-COM-Pad9)*%
X126629442Y-120280000D03*
%TO.P,U1,10,O7*%
%TO.N,unconnected-(U1-O7-Pad10)*%
X126629442Y-117740000D03*
%TO.P,U1,11,O6*%
%TO.N,unconnected-(U1-O6-Pad11)*%
X126629442Y-115200000D03*
%TO.P,U1,12,O5*%
%TO.N,unconnected-(U1-O5-Pad12)*%
X126629442Y-112660000D03*
%TO.P,U1,13,O4*%
%TO.N,Net-(Stepper1_48BYJ-28-Pin_4)*%
X126629442Y-110120000D03*
%TO.P,U1,14,O3*%
%TO.N,Net-(Stepper1_48BYJ-28-Pin_3)*%
X126629442Y-107580000D03*
%TO.P,U1,15,O2*%
%TO.N,Net-(Stepper1_48BYJ-28-Pin_2)*%
X126629442Y-105040000D03*
%TO.P,U1,16,O1*%
%TO.N,Net-(Stepper1_48BYJ-28-Pin_1)*%
X126629442Y-102500000D03*
%TD*%
D10*
%TO.P,U2,1,I1*%
%TO.N,Net-(DevBoard1-ADC2_CH7{slash}GPIO27)*%
X134249442Y-79800000D03*
D11*
%TO.P,U2,2,I2*%
%TO.N,Net-(DevBoard1-DAC_2{slash}ADC2_CH9{slash}GPIO26)*%
X134249442Y-82340000D03*
%TO.P,U2,3,I3*%
%TO.N,Net-(DevBoard1-DAC_1{slash}ADC2_CH8{slash}GPIO25)*%
X134249442Y-84880000D03*
%TO.P,U2,4,I4*%
%TO.N,Net-(DevBoard1-32K_XN{slash}GPIO33{slash}ADC1_CH5)*%
X134249442Y-87420000D03*
%TO.P,U2,5,I5*%
%TO.N,unconnected-(U2-I5-Pad5)*%
X134249442Y-89960000D03*
%TO.P,U2,6,I6*%
%TO.N,unconnected-(U2-I6-Pad6)*%
X134249442Y-92500000D03*
%TO.P,U2,7,I7*%
%TO.N,unconnected-(U2-I7-Pad7)*%
X134249442Y-95040000D03*
%TO.P,U2,8,GND*%
%TO.N,GND*%
X134249442Y-97580000D03*
%TO.P,U2,9,COM*%
%TO.N,unconnected-(U2-COM-Pad9)*%
X126629442Y-97580000D03*
%TO.P,U2,10,O7*%
%TO.N,unconnected-(U2-O7-Pad10)*%
X126629442Y-95040000D03*
%TO.P,U2,11,O6*%
%TO.N,unconnected-(U2-O6-Pad11)*%
X126629442Y-92500000D03*
%TO.P,U2,12,O5*%
%TO.N,unconnected-(U2-O5-Pad12)*%
X126629442Y-89960000D03*
%TO.P,U2,13,O4*%
%TO.N,Net-(Stepper2_48BYJ-28-Pin_4)*%
X126629442Y-87420000D03*
%TO.P,U2,14,O3*%
%TO.N,Net-(Stepper2_48BYJ-28-Pin_3)*%
X126629442Y-84880000D03*
%TO.P,U2,15,O2*%
%TO.N,Net-(Stepper2_48BYJ-28-Pin_2)*%
X126629442Y-82340000D03*
%TO.P,U2,16,O1*%
%TO.N,Net-(Stepper2_48BYJ-28-Pin_1)*%
X126629442Y-79800000D03*
%TD*%
D12*
%TO.P,BatterySocket1,1,Pin_1*%
%TO.N,Net-(BatterySocket1-Pin_1)*%
X143902882Y-118750000D03*
D13*
%TO.P,BatterySocket1,2,Pin_2*%
%TO.N,GND*%
X143902882Y-121250000D03*
%TD*%
D14*
%TO.P,DevBoard1,1,3V3*%
%TO.N,unconnected-(DevBoard1-3V3-Pad1)*%
X143949442Y-87600000D03*
D15*
%TO.P,DevBoard1,2,CHIP_PU*%
%TO.N,unconnected-(DevBoard1-CHIP_PU-Pad2)*%
X146489442Y-87600000D03*
%TO.P,DevBoard1,3,SENSOR_VP/GPIO36/ADC1_CH0*%
%TO.N,unconnected-(DevBoard1-SENSOR_VP{slash}GPIO36{slash}ADC1_CH0-Pad3)*%
X149029442Y-87600000D03*
%TO.P,DevBoard1,4,SENSOR_VN/GPIO39/ADC1_CH3*%
%TO.N,unconnected-(DevBoard1-SENSOR_VN{slash}GPIO39{slash}ADC1_CH3-Pad4)*%
X151569442Y-87600000D03*
%TO.P,DevBoard1,5,VDET_1/GPIO34/ADC1_CH6*%
%TO.N,unconnected-(DevBoard1-VDET_1{slash}GPIO34{slash}ADC1_CH6-Pad5)*%
X154109442Y-87600000D03*
%TO.P,DevBoard1,6,VDET_2/GPIO35/ADC1_CH7*%
%TO.N,unconnected-(DevBoard1-VDET_2{slash}GPIO35{slash}ADC1_CH7-Pad6)*%
X156649442Y-87600000D03*
%TO.P,DevBoard1,7,32K_XP/GPIO32/ADC1_CH4*%
%TO.N,unconnected-(DevBoard1-32K_XP{slash}GPIO32{slash}ADC1_CH4-Pad7)*%
X159189442Y-87600000D03*
%TO.P,DevBoard1,8,32K_XN/GPIO33/ADC1_CH5*%
%TO.N,Net-(DevBoard1-32K_XN{slash}GPIO33{slash}ADC1_CH5)*%
X161729442Y-87600000D03*
%TO.P,DevBoard1,9,DAC_1/ADC2_CH8/GPIO25*%
%TO.N,Net-(DevBoard1-DAC_1{slash}ADC2_CH8{slash}GPIO25)*%
X164269442Y-87600000D03*
%TO.P,DevBoard1,10,DAC_2/ADC2_CH9/GPIO26*%
%TO.N,Net-(DevBoard1-DAC_2{slash}ADC2_CH9{slash}GPIO26)*%
X166809442Y-87600000D03*
%TO.P,DevBoard1,11,ADC2_CH7/GPIO27*%
%TO.N,Net-(DevBoard1-ADC2_CH7{slash}GPIO27)*%
X169349442Y-87600000D03*
%TO.P,DevBoard1,12,MTMS/GPIO14/ADC2_CH6*%
%TO.N,unconnected-(DevBoard1-MTMS{slash}GPIO14{slash}ADC2_CH6-Pad12)*%
X171889442Y-87600000D03*
%TO.P,DevBoard1,13,MTDI/GPIO12/ADC2_CH5*%
%TO.N,unconnected-(DevBoard1-MTDI{slash}GPIO12{slash}ADC2_CH5-Pad13)*%
X174429442Y-87600000D03*
%TO.P,DevBoard1,14,GND*%
%TO.N,GND*%
X176969442Y-87600000D03*
%TO.P,DevBoard1,15,MTCK/GPIO13/ADC2_CH4*%
%TO.N,unconnected-(DevBoard1-MTCK{slash}GPIO13{slash}ADC2_CH4-Pad15)*%
X179509442Y-87600000D03*
%TO.P,DevBoard1,16,SD_DATA2/GPIO9*%
%TO.N,unconnected-(DevBoard1-SD_DATA2{slash}GPIO9-Pad16)*%
X182049442Y-87600000D03*
%TO.P,DevBoard1,17,SD_DATA3/GPIO10*%
%TO.N,unconnected-(DevBoard1-SD_DATA3{slash}GPIO10-Pad17)*%
X184589442Y-87600000D03*
%TO.P,DevBoard1,18,CMD*%
%TO.N,unconnected-(DevBoard1-CMD-Pad18)*%
X187129442Y-87600000D03*
%TO.P,DevBoard1,19,5V*%
%TO.N,Net-(BatterySocket1-Pin_1)*%
X189669442Y-87600000D03*
%TO.P,DevBoard1,20,SD_CLK/GPIO6*%
%TO.N,unconnected-(DevBoard1-SD_CLK{slash}GPIO6-Pad20)*%
X189666722Y-112996320D03*
%TO.P,DevBoard1,21,SD_DATA0/GPIO7*%
%TO.N,unconnected-(DevBoard1-SD_DATA0{slash}GPIO7-Pad21)*%
X187126722Y-112996320D03*
%TO.P,DevBoard1,22,SD_DATA1/GPIO8*%
%TO.N,unconnected-(DevBoard1-SD_DATA1{slash}GPIO8-Pad22)*%
X184589442Y-113000000D03*
%TO.P,DevBoard1,23,MTDO/GPIO15/ADC2_CH3*%
%TO.N,unconnected-(DevBoard1-MTDO{slash}GPIO15{slash}ADC2_CH3-Pad23)*%
X182049442Y-113000000D03*
%TO.P,DevBoard1,24,ADC2_CH2/GPIO2*%
%TO.N,unconnected-(DevBoard1-ADC2_CH2{slash}GPIO2-Pad24)*%
X179509442Y-113000000D03*
%TO.P,DevBoard1,25,GPIO0/BOOT/ADC2_CH1*%
%TO.N,unconnected-(DevBoard1-GPIO0{slash}BOOT{slash}ADC2_CH1-Pad25)*%
X176969442Y-113000000D03*
%TO.P,DevBoard1,26,ADC2_CH0/GPIO4*%
%TO.N,unconnected-(DevBoard1-ADC2_CH0{slash}GPIO4-Pad26)*%
X174429442Y-113000000D03*
%TO.P,DevBoard1,27,GPIO16*%
%TO.N,unconnected-(DevBoard1-GPIO16-Pad27)*%
X171889442Y-113000000D03*
%TO.P,DevBoard1,28,GPIO17*%
%TO.N,unconnected-(DevBoard1-GPIO17-Pad28)*%
X169349442Y-113000000D03*
%TO.P,DevBoard1,29,GPIO5*%
%TO.N,unconnected-(DevBoard1-GPIO5-Pad29)*%
X166809442Y-113000000D03*
%TO.P,DevBoard1,30,GPIO18*%
%TO.N,Net-(DevBoard1-GPIO18)*%
X164269442Y-113000000D03*
%TO.P,DevBoard1,31,GPIO19*%
%TO.N,Net-(DevBoard1-GPIO19)*%
X161729442Y-113000000D03*
%TO.P,DevBoard1,32,GND*%
%TO.N,GND*%
X159189442Y-113000000D03*
%TO.P,DevBoard1,33,GPIO21*%
%TO.N,Net-(DevBoard1-GPIO21)*%
X156649442Y-113000000D03*
%TO.P,DevBoard1,34,U0RXD/GPIO3*%
%TO.N,unconnected-(DevBoard1-U0RXD{slash}GPIO3-Pad34)*%
X154109442Y-113000000D03*
%TO.P,DevBoard1,35,U0TXD/GPIO1*%
%TO.N,unconnected-(DevBoard1-U0TXD{slash}GPIO1-Pad35)*%
X151569442Y-113000000D03*
%TO.P,DevBoard1,36,GPIO22*%
%TO.N,Net-(DevBoard1-GPIO22)*%
X149029442Y-113000000D03*
%TO.P,DevBoard1,37,GPIO23*%
%TO.N,unconnected-(DevBoard1-GPIO23-Pad37)*%
X146489442Y-113000000D03*
%TO.P,DevBoard1,38,GND*%
%TO.N,GND*%
X143949442Y-113000000D03*
%TD*%
D16*
%TO.P,Stepper1_48BYJ-28,1,Pin_1*%
%TO.N,Net-(Stepper1_48BYJ-28-Pin_1)*%
X116469442Y-109380000D03*
D17*
%TO.P,Stepper1_48BYJ-28,2,Pin_2*%
%TO.N,Net-(Stepper1_48BYJ-28-Pin_2)*%
X116469442Y-111880000D03*
%TO.P,Stepper1_48BYJ-28,3,Pin_3*%
%TO.N,Net-(Stepper1_48BYJ-28-Pin_3)*%
X116469442Y-114380000D03*
%TO.P,Stepper1_48BYJ-28,4,Pin_4*%
%TO.N,Net-(Stepper1_48BYJ-28-Pin_4)*%
X116469442Y-116880000D03*
%TO.P,Stepper1_48BYJ-28,5,Pin_5*%
%TO.N,Net-(BatterySocket1-Pin_1)*%
X116469442Y-119380000D03*
%TD*%
D16*
%TO.P,Stepper2_48BYJ-28,1,Pin_1*%
%TO.N,Net-(Stepper2_48BYJ-28-Pin_1)*%
X115894442Y-81440000D03*
D17*
%TO.P,Stepper2_48BYJ-28,2,Pin_2*%
%TO.N,Net-(Stepper2_48BYJ-28-Pin_2)*%
X115894442Y-83940000D03*
%TO.P,Stepper2_48BYJ-28,3,Pin_3*%
%TO.N,Net-(Stepper2_48BYJ-28-Pin_3)*%
X115894442Y-86440000D03*
%TO.P,Stepper2_48BYJ-28,4,Pin_4*%
%TO.N,Net-(Stepper2_48BYJ-28-Pin_4)*%
X115894442Y-88940000D03*
%TO.P,Stepper2_48BYJ-28,5,Pin_5*%
%TO.N,Net-(BatterySocket1-Pin_1)*%
X115894442Y-91440000D03*
%TD*%
D18*
%TO.N,GND*%
X135219442Y-121250000D02*
X136789442Y-121250000D01*
X134249442Y-120280000D02*
X135219442Y-121250000D01*
X134249442Y-120280000D02*
X133490304Y-120280000D01*
X176969442Y-88076295D02*
X176969442Y-87600000D01*
X139719442Y-117230000D02*
X143949442Y-113000000D01*
X140299442Y-116650000D02*
X157239442Y-116650000D01*
X133490304Y-120280000D02*
X131709442Y-118499138D01*
X136789442Y-121250000D02*
X143902882Y-121250000D01*
X167465737Y-97580000D02*
X176969442Y-88076295D01*
X159189442Y-114700000D02*
X159189442Y-113000000D01*
X136789442Y-120160000D02*
X139719442Y-117230000D01*
X131709442Y-118499138D02*
X131709442Y-100120000D01*
X139719442Y-117230000D02*
X140299442Y-116650000D01*
X134249442Y-97580000D02*
X167465737Y-97580000D01*
X131709442Y-100120000D02*
X134249442Y-97580000D01*
X136789442Y-121250000D02*
X136789442Y-120160000D01*
X157239442Y-116650000D02*
X159189442Y-114700000D01*
%TO.N,Net-(BatterySocket1-Pin_1)*%
X191516722Y-114162615D02*
X191516722Y-89447280D01*
X144522730Y-118750000D02*
X143902882Y-118750000D01*
X146152882Y-120380152D02*
X144522730Y-118750000D01*
X116469442Y-119380000D02*
X120439442Y-123350000D01*
X191516722Y-89447280D02*
X189669442Y-87600000D01*
X115894442Y-91440000D02*
X113929442Y-91440000D01*
X158995737Y-118750000D02*
X162495738Y-115250000D01*
X113929442Y-91440000D02*
X111389442Y-93980000D01*
X111389442Y-93980000D02*
X111389442Y-116840000D01*
X113929442Y-119380000D02*
X116469442Y-119380000D01*
X144922730Y-123350000D02*
X146152882Y-122119848D01*
X162495738Y-115250000D02*
X190429337Y-115250000D01*
X146152882Y-122119848D02*
X146152882Y-120380152D01*
X111389442Y-116840000D02*
X113929442Y-119380000D01*
X190429337Y-115250000D02*
X191516722Y-114162615D01*
X120439442Y-123350000D02*
X144922730Y-123350000D01*
X143902882Y-118750000D02*
X158995737Y-118750000D01*
%TO.N,Net-(DevBoard1-GPIO18)*%
X155469442Y-102500000D02*
X134249442Y-102500000D01*
X164269442Y-113000000D02*
X164269442Y-111300000D01*
X164269442Y-111300000D02*
X155469442Y-102500000D01*
%TO.N,Net-(DevBoard1-GPIO21)*%
X152929442Y-107580000D02*
X134249442Y-107580000D01*
X156649442Y-111300000D02*
X152929442Y-107580000D01*
X156649442Y-113000000D02*
X156649442Y-111300000D01*
%TO.N,Net-(DevBoard1-ADC2_CH7{slash}GPIO27)*%
X169349442Y-85900000D02*
X163239442Y-79790000D01*
X163239442Y-79790000D02*
X163229442Y-79800000D01*
X163229442Y-79800000D02*
X134249442Y-79800000D01*
X169349442Y-87600000D02*
X169349442Y-85900000D01*
%TO.N,Net-(DevBoard1-DAC_1{slash}ADC2_CH8{slash}GPIO25)*%
X164269442Y-87123705D02*
X162025737Y-84880000D01*
X162025737Y-84880000D02*
X134249442Y-84880000D01*
X164269442Y-87600000D02*
X164269442Y-87123705D01*
%TO.N,Net-(DevBoard1-DAC_2{slash}ADC2_CH9{slash}GPIO26)*%
X162961014Y-82340000D02*
X134249442Y-82340000D01*
X162961014Y-82340000D02*
X166809442Y-86188428D01*
X166809442Y-87600000D02*
X166809442Y-86188428D01*
%TO.N,Net-(DevBoard1-GPIO19)*%
X154245737Y-105040000D02*
X134249442Y-105040000D01*
X161729442Y-113000000D02*
X161729442Y-112523705D01*
X161729442Y-112523705D02*
X154245737Y-105040000D01*
%TO.N,Net-(DevBoard1-32K_XN{slash}GPIO33{slash}ADC1_CH5)*%
X161729442Y-87600000D02*
X161729442Y-89300000D01*
X137219442Y-89850000D02*
X134789442Y-87420000D01*
X161729442Y-89300000D02*
X161179442Y-89850000D01*
X161179442Y-89850000D02*
X137219442Y-89850000D01*
%TO.N,Net-(DevBoard1-GPIO22)*%
X149029442Y-111300000D02*
X147849442Y-110120000D01*
X147849442Y-110120000D02*
X134249442Y-110120000D01*
X149029442Y-113000000D02*
X149029442Y-111300000D01*
%TO.N,Net-(Stepper1_48BYJ-28-Pin_2)*%
X123641015Y-105040000D02*
X119009442Y-109671573D01*
X126629442Y-105040000D02*
X123641015Y-105040000D01*
X118694442Y-111880000D02*
X119009442Y-111565000D01*
X119009442Y-111565000D02*
X119009442Y-109671573D01*
X116469442Y-111880000D02*
X118694442Y-111880000D01*
%TO.N,Net-(Stepper1_48BYJ-28-Pin_4)*%
X118969442Y-116880000D02*
X116469442Y-116880000D01*
X121549442Y-116840000D02*
X119009442Y-116840000D01*
X124089442Y-114300000D02*
X121549442Y-116840000D01*
X126629442Y-110120000D02*
X125729442Y-110120000D01*
X125729442Y-110120000D02*
X124089442Y-111760000D01*
X124089442Y-111760000D02*
X124089442Y-114300000D01*
X119009442Y-116840000D02*
X118969442Y-116880000D01*
%TO.N,Net-(Stepper1_48BYJ-28-Pin_3)*%
X119217870Y-114380000D02*
X116469442Y-114380000D01*
X123929442Y-107580000D02*
X121405228Y-110104214D01*
X121405228Y-110104214D02*
X121405228Y-112192642D01*
X126629442Y-107580000D02*
X123929442Y-107580000D01*
X121405228Y-112192642D02*
X119217870Y-114380000D01*
%TO.N,Net-(Stepper1_48BYJ-28-Pin_1)*%
X123349442Y-102500000D02*
X116469442Y-109380000D01*
X126629442Y-102500000D02*
X123349442Y-102500000D01*
%TO.N,Net-(Stepper2_48BYJ-28-Pin_3)*%
X124217870Y-84880000D02*
X122657870Y-86440000D01*
X126629442Y-84880000D02*
X124217870Y-84880000D01*
X122657870Y-86440000D02*
X115894442Y-86440000D01*
%TO.N,Net-(Stepper2_48BYJ-28-Pin_4)*%
X124506298Y-87420000D02*
X122986298Y-88940000D01*
X122986298Y-88940000D02*
X115894442Y-88940000D01*
X126629442Y-87420000D02*
X124506298Y-87420000D01*
%TO.N,Net-(Stepper2_48BYJ-28-Pin_2)*%
X123929442Y-82340000D02*
X122329442Y-83940000D01*
X126629442Y-82340000D02*
X123929442Y-82340000D01*
X122329442Y-83940000D02*
X115894442Y-83940000D01*
%TO.N,Net-(Stepper2_48BYJ-28-Pin_1)*%
X117534442Y-79800000D02*
X115894442Y-81440000D01*
X126629442Y-79800000D02*
X117534442Y-79800000D01*
%TD*%
M02*
