M48
; DRILL file {KiCad 8.0.0} date 2024-03-19T17:03:51+0100
; FORMAT={-:-/ absolute / inch / decimal}
; #@! TF.CreationDate,2024-03-19T17:03:51+01:00
; #@! TF.GenerationSoftware,Kicad,Pcbnew,8.0.0
; #@! TF.FileFunction,Plated,1,2,PTH
FMAT,2
INCH
; #@! TA.AperFunction,Plated,PTH,ComponentDrill
T1C0.0315
; #@! TA.AperFunction,Plated,PTH,ComponentDrill
T2C0.0374
; #@! TA.AperFunction,Plated,PTH,ComponentDrill
T3C0.0394
%
G90
G05
T1
X4.9854Y-3.1417
X4.9854Y-3.2417
X4.9854Y-3.3417
X4.9854Y-3.4417
X4.9854Y-3.5417
X4.9854Y-3.6417
X4.9854Y-3.7417
X4.9854Y-3.8417
X4.9854Y-4.0354
X4.9854Y-4.1354
X4.9854Y-4.2354
X4.9854Y-4.3354
X4.9854Y-4.4354
X4.9854Y-4.5354
X4.9854Y-4.6354
X4.9854Y-4.7354
X5.2854Y-3.1417
X5.2854Y-3.2417
X5.2854Y-3.3417
X5.2854Y-3.4417
X5.2854Y-3.5417
X5.2854Y-3.6417
X5.2854Y-3.7417
X5.2854Y-3.8417
X5.2854Y-4.0354
X5.2854Y-4.1354
X5.2854Y-4.2354
X5.2854Y-4.3354
X5.2854Y-4.4354
X5.2854Y-4.5354
X5.2854Y-4.6354
X5.2854Y-4.7354
X5.6673Y-3.4488
X5.6673Y-4.4488
X5.7673Y-3.4488
X5.7673Y-4.4488
X5.8673Y-3.4488
X5.8673Y-4.4488
X5.9673Y-3.4488
X5.9673Y-4.4488
X6.0673Y-3.4488
X6.0673Y-4.4488
X6.1673Y-3.4488
X6.1673Y-4.4488
X6.2673Y-3.4488
X6.2673Y-4.4488
X6.3673Y-3.4488
X6.3673Y-4.4488
X6.4673Y-3.4488
X6.4673Y-4.4488
X6.5673Y-3.4488
X6.5673Y-4.4488
X6.6673Y-3.4488
X6.6673Y-4.4488
X6.7673Y-3.4488
X6.7673Y-4.4488
X6.8673Y-3.4488
X6.8673Y-4.4488
X6.9673Y-3.4488
X6.9673Y-4.4488
X7.0673Y-3.4488
X7.0673Y-4.4488
X7.1673Y-3.4488
X7.1673Y-4.4488
X7.2673Y-3.4488
X7.2673Y-4.4488
X7.3672Y-4.4487
X7.3673Y-3.4488
X7.4672Y-4.4487
X7.4673Y-3.4488
T2
X4.5628Y-3.2063
X4.5628Y-3.3047
X4.5628Y-3.4031
X4.5628Y-3.5016
X4.5628Y-3.6
X4.5854Y-4.3063
X4.5854Y-4.4047
X4.5854Y-4.5031
X4.5854Y-4.6016
X4.5854Y-4.7
T3
X5.6655Y-4.6752
X5.6655Y-4.7736
M30
